<svg version="1.2" xmlns="http://www.w3.org/2000/svg" viewBox="0 0 600 600" width="600" height="600">
	<title>Gagster Logo</title>
	<style>
		.s0 { opacity: 1;fill: #9efe40 } 
		.s1 { opacity: 1;fill: #06cf16 } 
		.s2 { opacity: 1;fill: #f7fcf8 } 
		.s3 { opacity: 1;fill: #46f025 } 
		.s4 { opacity: 1;fill: #7ffb36 } 
		.s5 { opacity: 1;fill: #65f730 } 
		.s6 { opacity: 1;fill: #affc4a } 
		.s7 { fill: #a8fb49 } 
	</style>
	<g id="Background">
		<path id="Path 1" fill-rule="evenodd" class="s0" d="m330.7 91.5c6.5 0.1 8.5 0.5 12.3 2.8 2.5 1.4 7 3.5 10 4.6 3 1 7.5 2.7 10 3.6 2.5 0.9 5.2 2.3 6 3 1.3 1.2 1.1 2.1-1.6 7.7-2.1 4.2-5.1 8-9 11.5-3.3 2.8-9.4 8-13.7 11.5-4.4 3.5-10.4 8-13.5 10.1-3.2 2.1-6.3 3.7-6.9 3.7-0.7 0-1.5 0.9-1.8 2-0.3 1.1-1.1 1.9-1.7 1.8-0.7-0.1-2.3 0.4-3.6 1.2-1.2 0.8-2.2 1.9-2.2 2.5 0 0.6-0.9 1.9-2 3-1.2 1.2-2.1 1.5-2 0.8 0-0.7-1.3 0.2-2.9 2-1.8 2-2.6 3.6-2 4.2 0.5 0.6 0.6 1.3 0.2 1.8-0.3 0.4 0.9 0.7 2.8 0.8 1.9 0.1 4.5 0.4 5.9 0.8 1.4 0.5-3.8 0.6-11.5 0.4-12.6-0.3-14.9-0.1-23.5 2.3-5.2 1.4-13.1 4.2-17.5 6.3-4.4 2-11.8 6.2-16.5 9.3-4.7 3.1-11 8-14 11-3.1 2.9-7.6 8-10.1 11.3-2.5 3.3-4.8 6.7-5.2 7.5-0.4 0.8-1.4 2.6-2.2 4-1.1 1.9-1.5 2.1-1.5 0.7 0-1.4-0.7-1.6-4-1.2-2.2 0.3-4.2 0.1-4.5-0.5-0.3-0.6-1.1-0.4-2 0.5-0.8 0.8-1.5 2.2-1.5 3 0 0.9-0.9 1.5-2.5 1.5-1.4 0-4.6 1.4-7.2 3.2-2.7 1.8-5 3.5-5.3 3.9-0.3 0.4-1.4 0.8-2.5 1.1-1.4 0.2-2 1.1-2 3.2 0 1.8-0.7 3.3-2 4-1.1 0.6-2.4 1.8-3 2.6-0.5 0.8-1 1.8-1 2.2 0 0.4-1.9 2-4.2 3.7-2.4 1.7-4.3 3.7-4.3 4.3 0.1 0.7-1.4 2.5-3.2 3.9-1.8 1.5-4.5 3.8-6 5.3-1.6 1.4-4.5 3.5-6.5 4.5-2.1 1-6.3 3.6-9.3 5.6-3 2-6.7 4.8-8.2 6.1-1.6 1.3-2.8 3.2-2.8 4.1 0.1 1-1.4 3-3.2 4.4-2 1.5-3.6 4-4.1 6-0.5 1.9-1.2 7-1.6 11.4-0.6 7.6-0.7 7.8-1.3 3.5-0.4-2.5-0.9-6.5-1.1-9-0.3-2.5-0.6-11.5-0.7-20-0.1-8.5 0.2-16.4 0.6-17.5 0.4-1.1 0.5-3.5 0.3-5.2-0.2-1.8-0.1-3.3 0.4-3.3 0.4 0 0.7-1.2 0.7-2.8 0-1.5 1.3-7.9 2.9-14.2 1.6-6.3 3.8-14 5-17 2-5.4 2.1-5.5 6.3-5.7 2.4-0.1 5.7-0.3 7.3-0.3 1.6 0 4-0.7 5.3-1.5 1.2-0.8 2.6-1.5 3.2-1.5 0.6 0 2.7-1.2 4.8-2.8 2-1.5 6.3-4.1 9.5-5.7 3.1-1.6 5.7-3.3 5.7-3.8 0-0.4 3-3.1 6.8-5.9 3.7-2.9 7.2-5.7 7.9-6.3 0.6-0.5 3.9-2.6 7.3-4.5 3.4-1.9 7.6-4.7 9.4-6.3 1.7-1.5 3.4-2.7 3.9-2.7 0.4 0 2.8-2 5.5-4.5 2.6-2.5 6.1-5.2 7.7-6 1.6-0.7 5.8-3.8 9.1-6.7 3.4-2.9 10.8-7.9 16.5-11.2 5.7-3.2 12.7-7.5 15.4-9.5 2.8-1.9 5.2-3.8 5.5-4.1 0.3-0.3 2.1-1.7 4-3 1.9-1.3 4.3-3.2 5.3-4.2 0.9-1 5-3.9 9-6.4 3.9-2.6 8.3-5.7 9.7-7.1 1.4-1.3 3.7-2.6 5.3-2.8 1.5-0.3 2.7-0.9 2.7-1.5 0-0.6 0.7-1 1.5-1 0.8 0 2.9-1.2 4.6-2.6 2.1-1.7 3.1-3.4 3-5 0-1.3 0.4-2.6 0.9-2.9 0.5-0.3 1.2-0.1 1.5 0.5 0.3 0.6 0.9 1 1.5 1 0.5 0 2.1-1.1 3.5-2.5 1.4-1.4 2.4-2.2 2.3-1.8-0.1 0.4 0.3 0.3 1-0.3 0.6-0.5 4.7-1 8.9-0.9zm-33.2 163c12.5 0 15.1 0.2 14.2 1.3-0.7 0.7-2.6 1.6-4.3 1.9-2 0.4-3.4 0.1-4.2-0.8-0.9-1.1-1.2-0.9-1.2 1.3 0 1.6-0.5 3-1 3.3-0.5 0.3-1.5-0.2-2-1-0.6-0.9-1.6-1.2-2.7-0.8-1.3 0.5-1.6 0.4-1-0.5 0.4-0.6 0.1-1.5-0.5-1.9-0.7-0.4-3.5-0.9-6.3-1.1-2.7-0.2-5.3-0.7-5.7-1-0.4-0.4 6.2-0.7 14.7-0.7z"/>
		<path id="Path 2" fill-rule="evenodd" class="s1" d="m465 351.3c1.2 0.2 1.6 2.1 1.8 9.2 0.2 5.2-0.2 9.8-0.8 11-0.6 1.1-1 2.5-0.9 3 0.1 0.5 0.1 2.2 0 3.7 0 1.6-0.6 2.6-1.1 2.3-0.6-0.3-0.7 0.1-0.2 1.1 0.4 0.9 0.2 1.9-0.5 2.2-0.6 0.4-1.3 1.8-1.5 3.2-0.2 1.4-0.7 3.1-1.1 3.7-0.4 0.7-0.5 1.8-0.2 2.3 0.3 0.5 0 1-0.5 1-0.5 0-0.8 0.7-0.5 1.5q0.5 1.5-0.7 0.7c-0.9-0.5-1-0.1-0.5 1.5 0.4 1.4 0.3 2.1-0.3 1.8-0.5-0.3-1.2 0.1-1.4 0.7-0.2 0.7-0.2 0.5 0-0.5 0.2-0.9-0.1-1.7-0.6-1.7-0.5 0-1 0.7-1 1.5 0 0.8 0.5 2.4 1 3.5 0.7 1.5 0.6 2.4-0.5 3.5-0.8 0.8-1.2 2.1-0.8 2.7 0.6 1 0.4 1-0.7 0.3-1.2-0.8-1.3-0.6-0.7 0.7 0.4 1.2 0 2.6-1.3 4-1.2 1.3-1.8 2.9-1.5 3.5 0.3 0.7-0.1 1.3-0.8 1.3q-1.2 0 0.3 1c1.3 0.8 1.2 1-0.2 1-1 0-1.6 0.5-1.3 1 0.3 0.5 0 1-0.5 1-0.5 0-1.4 1-1.9 2.2-0.5 1.3-0.9 2.8-1.1 3.3-0.1 0.5-0.8 1.3-1.6 1.7-0.8 0.5-1.2 1.3-0.9 1.8 0.3 0.5 0 1-0.5 1-0.5 0-0.8 0.7-0.5 1.5 0.3 0.9-0.1 1.5-1 1.5-0.8 0-1.5 0.6-1.5 1.2 0 0.7-0.9 2.3-2 3.5-1.1 1.3-1.7 2.3-1.2 2.3 0.4 0 0 0.6-0.9 1.3-0.9 0.7-1.8 1.7-2 2.2-0.2 0.5-0.7 0.9-1.1 0.7-0.5-0.1-0.6 0.3-0.3 0.8 0.3 0.5 0 1-0.5 1-0.6 0-0.7 0.8-0.3 1.7 0.5 1.3 0.4 1.6-0.5 1-0.7-0.4-1.7 0-2.4 0.8-0.7 0.9-0.8 1.5-0.3 1.5 0.5 0 0.4 0.6-0.2 1.5-0.7 0.8-1.8 1.3-2.3 1-0.5-0.3-0.9 0.1-0.8 0.7 0.2 0.7-0.3 1.2-0.9 1-0.7-0.1-1.1 0.3-0.8 0.8 0.3 0.5-0.4 1.9-1.5 3-1.1 1.1-2.2 2-2.5 2-0.3 0-1.4 1-2.6 2.2-1.1 1.3-1.7 1.6-1.3 0.8 0.4-0.9-0.1-0.7-1.4 0.5-1.2 1.1-2.1 2.5-1.9 3 0.1 0.5-0.4 0.9-1 0.7-0.7-0.1-1.1 0.3-0.8 0.8 0.3 0.5-0.6 1.7-2 2.5-1.4 0.8-2.2 2.1-1.9 2.7 0.3 0.7-0.1 0.4-0.9-0.7-1.4-1.8-1.6-1.9-2.1-0.3q-0.6 1.8 0.7 1.2c0.6-0.4 0 0.4-1.5 1.7-1.5 1.3-2.7 3.1-2.7 3.9 0 0.8-0.4 1.2-0.8 0.7-0.4-0.4-2 0.5-3.6 2-1.5 1.6-2.7 2.3-2.7 1.8 0.1-0.5-0.9 0.1-2 1.5-1.2 1.4-1.8 1.8-1.5 1 0.4-0.8-0.4-0.1-1.9 1.5-1.4 1.6-2.5 2.7-2.6 2.2 0-0.4-0.7 0-1.5 0.8-0.8 0.8-1.5 2-1.5 2.5 0 0.5-0.3 0.8-0.7 0.5-0.5-0.3-2 0.6-3.5 2-1.6 1.4-2.8 2.3-2.8 2 0-0.3-2.8 1.2-6.2 3.2-3.5 2-6.4 4-6.5 4.5-0.2 0.4-0.8 0.6-1.3 0.3-0.5-0.3-2.9 0.6-5.2 1.9-2.4 1.4-4.6 2.3-5 2-0.5-0.2-0.8 0.1-0.8 0.6 0 0.5-0.7 1-1.5 1-0.8 0-3.1 0.9-5 2-1.9 1.1-4.4 2-5.5 2-1.1 0-2 0.3-2 0.7 0 0.5-1.4 1.2-3.2 1.7-1.8 0.5-4.7 1.1-6.3 1.2-1.6 0.2-3.5 0.8-4 1.3-0.5 0.5-1.6 0.8-2.2 0.5-0.7-0.2-1.5 0.1-1.8 0.6-0.3 0.5-2 1-3.7 1-1.8 0-4.3 0.7-5.5 1.5-1.3 0.8-3.1 1.4-4 1.4-1-0.1-2 0-2.3 0.1-0.3 0.1-1.4 0.3-2.5 0.5-1.1 0.2-3.6 0.7-5.5 1-1.9 0.4-4.3 1.1-5.2 1.6-1.3 0.6-1.8 0.5-1.8-0.4 0.1-0.9-0.2-0.9-1.2 0-0.7 0.7-4 1.3-7.5 1.3-3.5 0-6.5 0.3-6.7 0.7-0.3 0.5-3.1 0.7-6.3 0.5-4.5-0.2-5.5 0-4.3 0.8 1.2 1 1.1 1-0.5 0.4-1.1-0.5-10.8-0.7-21.5-0.6-10.7 0.2-22-0.2-25-0.8-3-0.5-6.9-1.2-8.5-1.4-1.6-0.2-4.6-0.8-6.5-1.2-1.9-0.4-4.7-0.8-6.2-0.8-1.4-0.1-2.5-0.3-2.3-0.6 0.2-0.3-0.5-1.2-1.7-2-1.5-1.1-2.1-2.9-2.4-7.3-0.3-4.9-0.1-5.7 1.4-5.9 0.9 0 2.1-0.2 2.7-0.2 0.6-0.1 1.4-0.5 2-0.8 0.6-0.4 3.7-0.8 7-0.9 3.3-0.1 6.4-0.5 7-0.9 0.6-0.4 4.8-1.5 9.5-2.4 4.7-0.9 8.7-1.4 9-1.1 0.3 0.3 0.9 0 1.5-0.5 0.6-0.5 2.7-1.1 4.8-1.2 2.2-0.2 4.1-0.6 4.3-1.1 0.2-0.4 0.8-0.5 1.4-0.2 0.6 0.3 1.2 0 1.5-0.5 0.3-0.5 1.2-0.8 2-0.5 0.8 0.3 1.7 0 2-0.5 0.3-0.5 1.4-1 2.5-1 1.1 0 2.8-0.4 3.8-1 0.9-0.5 4-1.9 6.7-3 2.8-1 5.4-1.6 5.8-1.2 0.4 0.4 0.7 0.1 0.7-0.6 0-0.6 0.3-1.1 0.8-1 0.4 0.1 1.7-0.3 3-1 1.2-0.7 2.2-1 2.2-0.7 0 0.3 1.1-0.2 2.5-1 1.4-0.8 2.5-1.3 2.5-1 0 0.3 0.7-0.2 1.5-1 0.8-0.8 2-1.3 2.5-1 0.5 0.3 1 0 1-0.5 0-0.5 0.8-1 1.8-1 0.9 0 2.6-0.7 3.7-1.5 1.1-0.8 2.3-1.2 2.8-1 0.4 0.3 0.7 0 0.7-0.5 0-0.5 0.9-1 2-1 1.1 0 2-0.6 2-1.3 0-0.6 0.2-0.9 0.5-0.5 0.3 0.5 2.6-0.5 5.3-2.2 2.6-1.6 5.2-3 5.9-3 0.6 0 1.8-0.6 2.5-1.3 0.7-0.6 3.5-2.7 6.1-4.5 2.6-1.7 5.2-3.2 5.7-3.2 0.5 0 1-0.5 1-1 0-0.5 0.7-1 1.5-1 0.8 0 1.6-0.3 1.8-0.8 0.1-0.4 1.7-1.7 3.5-3 1.7-1.2 3.7-2.2 4.2-2.2 0.5 0 1-0.5 1-1 0-0.5 0.7-1 1.5-1 0.8 0 1.7-0.7 2-1.5 0.3-0.8 1-1.3 1.5-1 0.5 0.3 1.5-0.4 2-1.5 0.5-1.1 1.7-2 2.5-2 0.8 0 1.5-0.5 1.5-1 0-0.5 0.5-1 1-1 0.5 0 3.1-1.7 5.7-3.8 2.7-2 5.3-4.2 6-4.7 0.7-0.5 1.8-1.5 2.5-2 0.7-0.5 3.8-3 6.8-5.5 3-2.5 5.6-4.8 5.8-5.3 0.1-0.4 0.8-0.7 1.5-0.7 0.6-0.1 2.2-1.3 3.4-2.8 1.3-1.5 2.3-2.4 2.3-2 0 0.5 2.6-1.9 5.8-5.2 3.1-3.3 6-6 6.5-6 0.4 0 2.1-1.2 3.8-2.8 1.7-1.5 4.3-4 5.7-5.5 1.5-1.5 3-2.7 3.5-2.7 0.4 0 2.3-1.8 4.2-4 2.2-2.5 4-3.7 4.8-3.3q1.2 0.8 0.5-0.5c-0.5-0.7-0.2-1.5 0.7-2 0.8-0.4 4.5-3.6 8.3-7.2 3.8-3.6 8.2-7.5 9.8-8.7 1.6-1.3 4-3.2 5.4-4.3 1.4-1.1 5.1-4.1 8.3-6.5 3.1-2.5 5.7-5 5.7-5.5 0-0.5 0.7-1 1.5-1 0.8 0 1.4-0.4 1.3-1-0.1-0.5 2.5-2.3 5.8-3.9 3.2-1.7 6.6-2.9 7.4-2.8zm-188.8 20.7c0.7 0 3.1 0.6 5.3 1.4 2.4 0.8 9.5 1.4 17.5 1.5 9.2 0.1 13.7 0.6 14.2 1.4 0.4 0.7-0.2 1.9-1.5 2.9-1.2 0.9-2.4 1.5-2.7 1.3-0.3-0.3-1.3 0-2.2 0.5-1 0.6-1.6 1.5-1.3 2 0.3 0.5 0.2 0.9-0.2 0.9-0.5-0.1-1.4-0.1-2 0-0.8 0-1 0.6-0.6 1.3 0.6 0.9 0.4 1-0.7 0.4-1.1-0.6-2-0.2-3.3 1.5-1 1.3-1.6 1.7-1.2 0.9 0.5-1.2 0.4-1.2-0.7 0.1-0.7 0.9-2.7 2.3-4.3 3.2-1.6 0.9-3.3 1.3-3.7 0.9-0.4-0.4-1 0.1-1.3 1-0.3 1-1 1.6-1.5 1.3-0.5-0.3-1 0.1-1 0.7 0.1 0.9-0.4 0.9-1.5-0.2-1.5-1.3-1.6-1.3-1.1 0.2 0.4 1.1 0.1 1.8-0.6 1.8-0.7 0-2.4 0.8-3.8 2-1.4 1.1-2.8 1.7-3.2 1.5-0.5-0.3-0.8 0-0.8 0.5 0 0.5-0.4 0.8-1 0.5-0.5-0.3-1 0-1 0.5 0 0.5-0.4 0.8-1 0.5-0.5-0.3-1-0.2-1 0.2 0.1 0.5-2.5 2-5.7 3.4-3.2 1.5-9.6 4-14.3 5.7-4.7 1.7-11.9 3.9-16 5-4.1 1.1-11.9 3-17.2 4.1-5.4 1.2-11.4 2.1-13.3 2.1-2.7 0-3.6-0.5-4-2-0.4-1.5 0.5-2.6 3.5-4.5 2.2-1.4 4.6-2.5 5.3-2.5 0.6 0 2.8-0.6 4.7-1.4 1.9-0.8 4.9-1.6 6.5-1.9 1.6-0.3 4.7-1.2 6.8-2.1 2-0.9 3.7-1.3 3.7-0.9 0 0.5 0.5 0.2 1.2-0.5 0.7-0.6 2.7-1.2 4.4-1.2 1.8 0 3.9-0.6 4.6-1.4 0.7-0.7 3.3-2.4 5.7-3.7 2.4-1.3 4.5-2.7 4.7-3.2 0.2-0.4 1.3-0.7 2.4-0.7 1.1 0 1.8-0.5 1.5-1-0.3-0.5 0.1-1 0.8-1 0.6 0 2.3-1.3 3.7-3 1.4-1.6 3.4-3 4.3-3 0.9 0 2.2-1 2.8-2.3 0.7-1.2 2.9-4.2 5-6.7 2.1-2.5 3.8-5.3 3.9-6.3 0-0.9 0.6-1.7 1.3-1.7z"/>
		<path id="Path 3" class="s2" d="m563.5 278.1c-4.4 0.5-12.3 1.8-17.5 2.9-5.2 1.2-15.8 3.9-23.5 6.1-7.7 2.2-18 5.4-23 7.1-5 1.7-11.5 4.1-14.5 5.3-3 1.3-11.4 5.1-18.5 8.4-7.1 3.4-13.9 6.6-15 7.3-1.1 0.6-6.3 3.4-11.5 6.1-5.2 2.7-10.7 5.8-12.3 6.8-1.5 1.1-2.9 1.9-3.2 1.9-0.3 0-6.5 3.6-13.8 7.9-7.2 4.4-17 10.5-21.7 13.5-4.7 3.1-9.2 6-10 6.5-0.8 0.6-6.5 4.3-12.5 8.3-6.1 4-13.5 8.9-16.5 10.8-3 1.9-6.5 4.4-7.8 5.5-1.3 1.1-4 2.9-6 4.1-2 1.1-5.9 3.3-8.7 4.9-2.8 1.5-6.4 3.8-8 5-1.6 1.2-8.4 5.4-15 9.3-6.6 3.8-14.3 8.2-17 9.7-2.8 1.5-12.2 5.5-21 9-8.8 3.4-19.6 7.4-24 8.9-4.4 1.5-13.6 3.6-20.5 4.7-6.9 1.2-18.1 2.7-25 3.3-6.9 0.7-16.8 1.1-22 1-5.2-0.1-14.9-0.9-21.5-1.9-6.6-0.9-16.1-3-21-4.5-4.9-1.6-11.3-3.4-14-4-2.8-0.6-10.4-3.1-17-5.6-6.6-2.6-14.7-6-18-7.6-3.8-2-9.4-6.3-15.4-12.2-5.1-5-11.1-11.8-13.4-15.1-2.6-3.8-5.9-11.2-9-20-2.7-7.7-5.9-17.8-7.2-22.5-1.3-4.7-2.4-10-2.4-11.8-0.1-1.7-0.8-6.2-1.6-10-0.9-3.7-1.9-7.6-2.2-8.7-0.5-1.7-0.7-1.6-1.5 1-0.5 1.8-0.4 7.8 0.3 14.5 0.6 6.3 1.9 14.9 2.9 19 1 4.1 3 12 4.5 17.5 1.5 5.5 4.3 13.9 6.1 18.7 1.9 4.9 5.3 11.8 7.5 15.5 2.3 3.8 5 7.9 5.9 9.3 0.9 1.4 2.9 4.3 4.3 6.5 1.4 2.2 6.8 8.5 11.9 13.9 5.1 5.4 12.7 12.5 16.8 15.6 4.1 3.1 10.2 7.4 13.5 9.5 3.3 2.1 9.6 5.5 14 7.5 4.4 2.1 10 4.6 12.5 5.8 2.5 1.1 7.4 2.9 11 4 3.6 1.1 10.1 2.7 14.5 3.5 4.4 0.9 13.4 2.4 20 3.3 8.2 1.1 15 1.4 21.5 1 5.2-0.4 12.2-1.1 15.5-1.7 3.3-0.5 9.1-1.7 13-2.5 3.9-0.8 11.7-2.9 17.5-4.6 5.8-1.7 16.4-5.5 23.5-8.5 7.1-3 17.3-7.7 22.5-10.5 5.2-2.8 14-7.8 19.5-11.1 5.5-3.3 11.8-7.3 14-8.9 2.2-1.6 8-5.9 13-9.5 5-3.7 9.2-6.9 9.5-7.3 0.3-0.3 3.2-2.6 6.5-5.1 3.3-2.5 6.7-5.2 7.5-6 0.8-0.8 3.7-3.2 6.5-5.4 2.7-2.2 5.5-4.5 6.1-5 0.6-0.5 3.3-2.9 6-5.2 2.7-2.3 6.3-5.3 7.9-6.8 1.6-1.5 6.6-5.7 11-9.4 4.4-3.7 11.6-9.7 16-13.2 4.4-3.6 10.9-8.7 14.5-11.4 3.6-2.8 8.5-6.5 11-8.2 2.5-1.8 10.8-7.5 18.5-12.6 7.7-5.2 18.5-12.1 24-15.4 5.5-3.3 13.8-8.1 18.5-10.6 4.7-2.5 14.1-7 21-10 9.1-4 17.3-6.7 30-9.7 9.6-2.3 21.3-4.6 26-5.1 4.7-0.5 9-0.9 9.5-0.9q1 0 0-1c-0.5-0.6-4.1-1.2-8-1.4-3.9-0.3-10.6 0-15 0.5z"/>
		<path id="Path 4" class="s3" d="m435.7 147.8c-0.3 0.4-0.1 1.6 0.4 2.7l0.8 2c0.3-3.1 0.7-2.5 1-0.5 0.4 1.9 0.6 4.1 0.4 4.7-0.2 0.8-1 1-2 0.6-1.3-0.5-1.6-0.4-1 0.5 0.4 0.6 0.2 1.2-0.3 1.2-0.5 0-2.4 2.1-4.1 4.7-1.6 2.7-2.9 5.8-2.7 6.9 0.2 1.2 0 2-0.4 1.8-0.5-0.2-0.8-0.2-0.8 0.1 0 0.3-0.2 1.1-0.5 1.7-0.3 0.8 0.3 1.3 1.7 1.2 1.4 0 2.3-0.7 2.3-1.7 0-0.9 3.1-4.5 7-8.1 6.6-6.1 6.9-6.6 5.4-8.3-0.9-1-2-3.2-2.3-4.8-0.4-1.6-1.3-3.6-1.9-4.3-0.7-0.7-1.5-1.3-1.9-1.2-0.4 0-0.9 0.3-1.1 0.7zm-16 108.2l-8.9 0.6c3.3 4.3 4.2 5.8 4.2 6.2 0.1 0.5-0.8 1.9-1.9 3.3-1.1 1.4-1.7 2.9-1.3 3.4 0.4 0.5-0.1 0.6-1 0.3-1-0.4-1.6-0.4-1.3 0 0.2 0.5-0.3 1.9-1.3 3.2-1.2 1.7-2.3 2.1-3.9 1.7-1.6-0.4-2.6-0.1-3.2 1.1-0.4 1-0.7 2.4-0.5 3 0.3 0.8-0.6 1.3-2.1 1.3-1.4 0-2.4 0.5-2.2 1.2 0.1 0.7-0.5 1.2-1.3 1.3-0.8 0-1.6 1-1.7 2.2-0.2 1.3-0.8 2.3-1.3 2.3-0.5 0-2.5 1.3-4.2 3-1.8 1.6-3.6 2.8-4 2.5-0.5-0.3-0.8 0.4-0.8 1.5 0 1.1-1 2.4-2.2 3-1.3 0.5-5.2 3-8.8 5.5-3.6 2.5-7.6 5.3-8.9 6.3-1.3 0.9-3.1 1.9-4 2.2-0.9 0.3-3.7 1.9-6.4 3.5-2.9 1.9-4.7 3.7-4.8 5v2c-1.6-3.9-1.7-3.9-2.9-1.5-0.8 1.8-1.8 2.4-3.3 2.1-2-0.4-2.1-0.3-0.7 1.3 1.4 1.5 1.3 1.7-1 1.7-2.3 0-2.3 0.1-0.5 0.9 1.7 0.7 1.7 0.9 0.3 0.9-1 0.1-1.8 0.7-1.8 1.3 0 0.7 0.9 2.1 2 3 1.5 1.3 4.5 1.9 11.3 2.3 5 0.3 10.2 0.8 11.5 1 1.2 0.3 2.2 0.2 2.2-0.3 0-0.4 3.9-0.8 8.8-1 4.8-0.2 8.8-0.8 9-1.3 0.1-0.5 0.5-0.7 1-0.4 0.4 0.2 1.8-0.5 3.2-1.6 1.4-1.1 5.2-3.7 8.5-5.8 3.3-2.1 7.6-4.8 9.5-5.9 1.9-1.2 5.8-3.3 8.5-4.8 2.8-1.5 5.2-2.9 5.5-3.3 0.3-0.3 7.2-4 15.5-8.1 8.2-4.1 15.3-7.4 15.7-7.3 0.5 0.2 0.8-0.2 0.8-0.7 0-0.6 0.6-1 1.3-1 0.6 0 3.7-1 6.7-2.2 3-1.2 5.8-2.7 6.2-3.3 0.4-0.5 0.8-8.1 0.8-16.8v-15.7c-29.1 0.3-41.5 0.6-46.3 0.9zm-198.6 87.3c-1.2 1.3-2.1 2.8-2 3.3 0.1 0.5 0.1 1.6 0 2.2 0 0.7-0.5 1.3-1.1 1.3-0.6 0-0.7-0.6-0.4-1.3 0.3-0.6-0.4-0.1-1.5 1.3-1.1 1.4-2.7 4-3.6 5.7-0.8 1.8-1.5 4-1.5 4.8 0 0.8-0.3 1.3-0.7 1-0.5-0.2-1.8 0.4-3 1.5-1.3 1.1-2.7 2-3.3 2-0.6 0-1 1.1-1 2.5q0 2.5-1.7 2.6c-1 0.1-2.1 0.1-2.5 0-0.5 0-0.8 0.5-0.8 1.1q0 1.3-1-0.2-1-1.5-1-0.3c0 0.8-0.7 1.1-1.7 0.8-1-0.3-2.7-0.3-3.8 0.1-1.7 0.5-1.8 0.8-0.5 1.5 1.3 0.7 1.2 0.9-0.2 0.9-1 0-1.8 0.5-1.8 1 0 0.6-0.6 0.7-1.7 0.1-1.3-0.7-2.3-0.4-3.6 1.2-1.3 1.6-2 1.9-2.5 0.9-0.5-0.9-1.1-0.9-2.7 0.3-1.1 0.8-1.6 1.5-1 1.4 0.6-0.1 1.3-0.1 1.8 0 0.4 0 0.1 0.7-0.5 1.5-1.1 1.2-1.5 1.1-2.5-0.8l-1.3-2.1c-0.8 3.5-1.6 4.5-2.2 4.5-0.7 0-2.7 2.4-4.3 5.5-2.3 4.2-3.2 5.1-3.7 3.7-0.5-1.3-0.7-1.4-0.8-0.2-0.1 0.8-0.1 2.6 0 4 0.2 1.4 1.1 3.4 2.1 4.5 1 1.1 1.5 2.5 1.1 3-0.4 0.5-0.2 0.7 0.3 0.3 0.6-0.3 2 0.9 3.3 2.8 1.2 1.9 2.6 3.2 3.2 2.9 0.6-0.3 1 0 1 0.5 0 0.5 0.7 1 1.5 1 0.8 0 1.5 0.5 1.5 1 0 0.5 0.7 1 1.5 1 0.8 0 1.7 0.7 2 1.5 0.3 0.8 1.2 1.3 2 1 0.9-0.3 1.7 0.2 2 1.2 0.3 1 0.9 1.5 1.3 1.1 0.4-0.4 2.5 0.2 4.7 1.4 2.2 1.1 5.2 2.5 6.8 2.9 2.2 0.7 2.6 0.6 2.2-0.6-0.3-1 0.9-2.4 3.5-4 2.2-1.4 4.6-2.5 5.3-2.5 0.6 0 2.8-0.6 4.7-1.4 1.9-0.8 4.9-1.6 6.5-1.9 1.6-0.3 4.7-1.2 6.8-2.1 2-0.9 3.7-1.3 3.7-0.9 0 0.5 0.5 0.2 1.2-0.5 0.7-0.6 2.7-1.2 4.4-1.2 1.8 0 3.9-0.6 4.6-1.4 0.7-0.7 3.3-2.4 5.7-3.7 2.4-1.3 4.5-2.7 4.7-3.2 0.2-0.4 1.3-0.7 2.4-0.7 1.1 0 1.8-0.5 1.5-1-0.3-0.5 0.1-1 0.8-1 0.6 0 2.6-1.3 4.2-3 1.6-1.7 3.6-3 4.3-3 0.6 0 1.7-1 2.3-2.3 0.7-1.2 2.9-4.2 4.9-6.7 2.1-2.5 3.9-5.6 4.1-7q0.4-2.5-1.1-2.6c-0.8 0-1.7-0.2-2-0.3-0.3-0.1-1.6-0.5-3-0.7-1.4-0.3-2.7-0.8-3-1.2-0.3-0.4-1.4-0.9-2.5-1.1-1.1-0.2-2.6-1-3.2-1.7-0.7-0.8-2.7-1.7-4.3-2.2-1.7-0.4-3-0.9-3-1.2 0-0.3-1.7-1.1-3.7-1.9-2.1-0.8-4.4-2-5-2.8-0.7-0.7-2.2-1.3-3.3-1.3-1.1 0-2-0.6-2-1.3 0-0.6-2.2-3.1-5-5.5-3.2-2.7-4.7-4.6-4.3-5.5 0.5-0.7 0.4-0.9-0.2-0.5-0.6 0.4-1.9 0.1-3-0.7-1.1-0.8-2.3-1.5-2.6-1.5-0.3 0-1.6 1-2.8 2.2z"/>
		<path id="Path 5" class="s4" d="m368.8 105.3c1 1.4 0.7 2.8-1.7 8-2 4.4-4.6 7.7-8.7 11.4-3.3 2.8-9.4 8-13.7 11.5-4.4 3.5-10.4 8-13.5 10.1-3.2 2.1-6.3 3.7-7 3.7-0.6 0-1.4 0.9-1.7 2-0.3 1.1-1.1 1.9-1.8 1.8-0.6-0.1-2.2 0.4-3.5 1.2-1.2 0.8-2.2 1.9-2.2 2.5 0 0.6-0.9 1.9-2 3-1.2 1.2-2.1 1.5-2 0.8 0-0.7-1.3 0.2-2.9 2-1.8 2-2.6 3.6-2 4.2 0.5 0.6 0.7 1.2 0.4 1.5-0.2 0.3 1.8 0.8 4.6 1.3 2.7 0.4 5.5 1 6.1 1.4 0.7 0.4 2.3 0.6 3.5 0.5 1.3-0.1 2.5 0.2 2.8 0.8 0.3 0.6 1.2 0.8 2 0.5 0.8-0.3 2.1-0.1 2.7 0.5 0.7 0.5 1.6 0.8 2 0.5 0.5-0.3 1.4-0.2 2 0.2 0.7 0.4 1.6 0.9 2 1 0.5 0.2 1.1 0.3 1.5 0.4 0.5 0.1 1.9 0.2 3.3 0.2 1.4 0.1 2.4 0.7 2.2 1.5-0.1 0.8 0.3 0.9 1.3 0.5 0.9-0.5 2.2-0.1 3.3 1 0.9 0.9 2 1.4 2.5 1 0.4-0.5 0.7-0.2 0.7 0.5 0 0.6 0.5 1 1 0.7 0.5-0.3 1-0.2 1 0.3 0 0.4 1.4 1.4 3.2 2.3 1.8 0.9 7.8 5 13.3 9.2 5.5 4.1 11.4 8.9 13 10.6 1.6 1.7 3.3 3.1 3.7 3.1 0.5 0-1.4-2.1-4.1-4.7-2.7-2.7-5.3-6.3-5.9-8.3-0.5-1.9-0.8-5.5-0.5-8 0.3-2.5 1.6-6.7 2.9-9.5 1.4-2.7 3.9-6.6 5.8-8.5 1.8-1.9 5.9-5.7 9.1-8.5 3.1-2.7 8.5-7.6 11.9-10.7 3.3-3.1 7.9-8.6 10.1-12.2 2.2-3.6 4.5-6.6 5-6.6 0.5 0 3 1.6 5.5 3.6l4.5 3.6c-7.8-7.4-13.4-11.7-17.5-14.4-6.8-4.4-8-4.9-13.3-4.8-3.3 0-7-0.7-9-1.6-1.7-0.9-7.2-4.1-12.2-7.2-5-3-8.4-4.8-7.8-3.9zm-166.5 117.3c-0.7 0.8-1.2 2.1-1.2 2.9 0 0.9-0.9 1.5-2.5 1.5-1.4 0-4.6 1.4-7.3 3.2-2.6 1.8-4.9 3.5-5.2 3.9-0.3 0.4-1.4 0.8-2.5 1.1-1.4 0.2-2 1.1-2 3.2 0 1.8-0.7 3.3-2 4-1.1 0.6-2.4 1.8-3 2.6-0.5 0.8-1 1.8-1 2.2 0 0.4-1.9 2-4.3 3.7-2.3 1.7-4.2 3.7-4.2 4.4 0.1 0.6-1.4 2.4-3.2 3.8-1.8 1.5-4.5 3.8-6.1 5.3-1.5 1.4-4.4 3.5-6.5 4.5-2 1-6.2 3.6-9.2 5.6-3 2-6.7 4.8-8.3 6.1-1.5 1.3-2.7 3.2-2.7 4.2 0.1 0.9-1.4 2.9-3.2 4.3-2 1.5-3.6 4-4.1 6-0.5 1.9-1.2 7.7-1.5 13.1-0.4 5.3-0.4 9.4 0 9.2 0.5-0.2 0.8-0.2 0.8 0.1 0 0.3 1.1 4.8 2.5 10 1.4 5.2 2.2 10.1 1.7 10.7q-0.7 1.3 0.5 0.5c0.9-0.4 1.3-0.1 1.3 1.1 0 0.9 1.5 5.5 3.5 10.2l3.4 8.5c-0.1-7 0.2-10.4 0.6-12 0.4-1.6 1.9-4 3.4-5.2 1.4-1.2 3-2.2 3.6-2.2 0.5-0.1 1.8-1.8 2.8-3.8 1.2-2.4 2.1-3.4 2.5-2.6 0.5 0.9 1.7 0.4 4.2-1.8 1.9-1.7 2.7-2.5 1.7-1.8-1.4 1.1-1.8 1.1-1.7 0.2 0-0.7 1.6-1.8 3.5-2.3 1.9-0.5 3.7-1.8 4-2.7 0.2-1 1.8-2.6 3.5-3.5 1.6-1 3.6-1.8 4.2-1.8 0.7 0 2.6-1.2 4.2-2.7 1.7-1.7 3.1-2.4 3.5-1.8 0.3 0.6 1 1 1.6 1 0.5 0 2-0.6 3.2-1.3 1.3-0.7 2.3-1.9 2.3-2.7 0-0.8 0.4-1.5 1-1.5 0.5 0 1-1.4 1-3 0-1.6 0.4-3.9 1-5 0.5-1.1 1.4-1.8 2-1.5 0.5 0.3 1-0.2 1-1 0-0.8 0.8-1.8 1.7-2.2 1-0.3 2.1-1.1 2.5-1.7 0.4-0.6 0.8-3.7 0.8-6.8 0-4.3 0.4-5.9 1.5-6.3 0.9-0.3 1.5-1.7 1.5-3.5 0-1.6 0.7-4.4 1.5-6 1.3-2.5 1.7-2.8 3-1.7 1.4 1 1.6 0.8 1.5-1.8 0-2.3-0.3-2.7-1-1.5-0.5 0.8-1 1.2-1 0.8 0-0.5 0.7-1.8 1.5-3 0.8-1.4 1.6-5.4 1.8-9.8 0.2-4.1 0.8-8.5 1.5-9.7 0.7-1.3 0.7-2.1 0.2-1.8-0.6 0.3-0.5-0.5 0.2-1.7 0.6-1.3 1.1-2.4 1-2.5-0.1-0.2-0.2-0.7-0.2-1.3 0-0.6 0.4-0.8 1-0.5 0.5 0.3 1.1-0.3 1.1-1.2 0.1-1 0.2-2.2 0.3-2.8 0.1-0.6 0.6-1.9 1-3 0.4-1.1 1.2-3 1.7-4.2 0.5-1.3 0.9-3 0.9-3.8 0-1.1-0.8-1.4-3.5-1-1.9 0.3-4.1 0.1-4.8-0.4-0.9-0.6-1.8-0.4-2.5 0.5zm75.4 46.9c0.2 8.3 0.6 15.9 1 17 0.4 1.1 0.5 3.2 0.3 4.7-0.2 1.5-0.1 2.8 0.3 2.8 0.5 0 0.6 0.9 0.3 2-0.3 1.1 0 2 0.5 2 0.5 0 0.9 0.8 0.8 1.8-0.1 0.9 0.1 2.3 0.5 3 0.4 0.6 0.4 1.2-0.1 1.2-0.4 0-0.2 0.4 0.5 0.8 0.6 0.4 1.3 1.3 1.5 2.1 0.1 0.8 1 2.3 1.8 3.3 0.8 1 1.3 2.1 1 2.3-0.3 0.3 0.5 1.1 1.7 2 1.3 0.8 2.1 2 1.8 2.5-0.3 0.5 0.6 1.6 2 2.3 1.4 0.6 2.5 1.5 2.5 2 0 0.4 1.1 1.4 2.5 2.2 2.2 1.3 2.4 1.3 2 0-0.3-0.8-1.1-1.5-1.8-1.5-0.6 0-1.9-1-2.6-2.2-1.4-2.1-1.3-2.2 0.2-1.5 1.2 0.5 1.7 0.2 1.8-1 0-1 0.1-2.8 0.2-4 0.1-1.2 1.4-3.4 2.9-5 1.5-1.5 2.8-3.8 2.8-5 0-1.3 0.5-2.3 1-2.3 0.5 0 1 0.5 1 1 0 0.6 0.9 0.5 2.2-0.2 1.3-0.7 3.3-2.3 4.5-3.5 1.3-1.3 3-2.3 3.8-2.3 0.8 0 2.4-0.5 3.5-1 1.1-0.6 2-1.7 2-2.5 0-0.8 0.6-1.6 1.2-1.6 0.7-0.1 1.6-0.1 2 0 0.5 0 0.8-0.3 0.8-0.9 0-0.6 0.8-0.7 1.7-0.3 1.3 0.5 1.6 0.4 1-0.5-0.4-0.7-0.1-1.4 0.8-1.7 0.9-0.3 1.5 0.1 1.5 1.3 0 0.9 0.3 1.3 0.8 0.7 0.4-0.6 2-1.7 3.5-2.5 1.6-0.8 4.5-3.2 6.5-5.2 2.1-2 4-3.5 4.4-3.2 0.5 0.2 1.1-0.4 1.5-1.3 0.3-1 0.7-2.2 0.9-2.8 0.1-0.6 0.6-3.6 1.1-6.8 0.4-3.2 0.5-6 0-6.3-0.4-0.2-0.5-0.8-0.2-1.4 0.3-0.6 1.3-0.7 2.2-0.4 1.6 0.5 1.5 0.3-0.2-1.6l-2-2.1c3.5 0.1 4.3-0.2 4.1-0.6-0.2-0.5-8.9-0.7-19.3-0.6-14.6 0.2-19.5 0.6-21.8 1.8-1.6 0.8-4 1.5-5.3 1.5-1.2 0-2.4-0.6-2.6-1.2-0.3-0.7-0.5-0.1-0.5 1.5-0.1 1.5-0.6 2.9-1.1 3.2-0.5 0.3-1.5-0.2-2-1-0.6-0.9-1.6-1.2-2.8-0.8-1.2 0.5-1.5 0.4-1-0.5 0.5-0.6 0.2-1.5-0.5-1.9-0.6-0.4-1.7-0.8-2.2-0.9-0.5 0-2.9-0.2-5.3-0.2-2.3-0.1-4-0.5-3.8-0.9 0.2-0.5-1-0.8-2.8-0.8h-3.3zm117.9-14.8c1.7 0.2 4.8 0.2 7 0 2.2-0.2 0.9-0.4-3-0.4-3.8 0-5.6 0.2-4 0.4zm54 0c2.2 0.2 6 0.2 8.5 0 2.5-0.2 0.7-0.4-4-0.4-4.7 0-6.7 0.2-4.5 0.4z"/>
		<path id="Path 6" class="s5" d="m419 129.6c-0.8 0.3-3.3 3.4-5.5 7-2.2 3.6-6.8 9.1-10.1 12.2-3.4 3.1-8.8 8-11.9 10.7-3.2 2.8-7.3 6.6-9.1 8.5-1.9 1.9-4.4 5.8-5.8 8.5-1.3 2.8-2.6 7-2.9 9.5-0.3 2.5 0.1 6.3 0.8 8.5 0.7 2.2 1.1 4.2 0.9 4.5-0.2 0.3 0.7 1.6 2.1 3 1.4 1.4 2.5 2.1 2.5 1.5 0-0.6 0.8-0.1 2 1 1.4 1.5 2.5 1.8 3.7 1.1 1-0.5 2.1-0.8 2.5-0.8 0.5 0.1 0.8-0.2 0.8-0.8 0-0.6 0.7-1 1.5-1 0.8 0 5.9-2.7 11.2-5.9 5.4-3.3 10.9-7 12.3-8.3 1.4-1.3 5-4.4 8-6.9 3-2.5 9.5-8.4 14.5-13.1 5-4.7 8.8-8.9 8.5-9.2-0.3-0.3-4.5 3.2-9.5 7.9-5 4.7-9.1 8.4-9.3 8.3-0.1-0.2 0-1.1 0.3-2 0.3-1 0.8-1.6 1.2-1.4 0.5 0.2 0.7-0.6 0.5-1.8-0.2-1.1 1.1-4.2 2.7-6.8 1.7-2.7 3.6-4.8 4.1-4.8 0.5 0 0.7-0.6 0.2-1.2-0.5-0.9-0.2-1 1-0.5 1.1 0.4 1.9 0.2 2.1-0.5 0.2-0.7 0-2.9-0.4-4.8-0.3-2-0.7-2.6-0.8-1.5l-0.2 2c-1.4-3.3-1.2-4.3-0.4-5 1.1-0.8 0.3-2.2-3.5-6.5-2.7-3-4.9-5.2-5-4.7 0 0.4-1.7-0.7-3.8-2.5-2-1.8-3.6-3.6-3.6-4 0.1-0.4 0.1-0.7 0-0.7 0 0.1-0.8 0.3-1.6 0.5zm-69 126.1l-2.5 0.4c3.7 3.8 3.8 4 2.3 3.5-1-0.3-2-0.1-2.3 0.4-0.3 0.6-0.2 1.2 0.2 1.4 0.5 0.3 0.4 3.1 0 6.3-0.5 3.2-1 6.3-1.1 6.8-0.2 0.6-0.6 1.8-0.9 2.8-0.4 0.9-1 1.5-1.4 1.3-0.5-0.3-2.4 1.2-4.5 3.2-2 2-4.9 4.4-6.5 5.2-1.5 0.8-3.1 1.9-3.5 2.5-0.5 0.6-0.8 0.2-0.8-0.7 0-1.2-0.6-1.6-1.5-1.3-0.9 0.3-1.2 1-0.8 1.7 0.6 0.9 0.3 1-0.9 0.5-1-0.4-1.8-0.3-1.8 0.3 0 0.6-0.3 0.9-0.7 0.9-0.5-0.1-1.4-0.1-2 0-0.7 0-1.3 0.8-1.3 1.6 0 0.8-0.9 2-2 2.5-1.1 0.5-2.7 1-3.5 1-0.8 0-2.5 1-3.8 2.3-1.2 1.2-3.2 2.8-4.5 3.5-1.3 0.7-2.2 0.8-2.2 0.2 0-0.5-0.5-1-1-1-0.5 0-1 1-1 2.3 0 1.2-1.3 3.5-2.8 5-1.5 1.6-2.8 3.8-2.9 5-0.1 1.2-0.2 3-0.2 4-0.1 1.2-0.6 1.5-1.9 1.1-1.4-0.6-1.5-0.5-0.4 0.7 0.7 0.8 1.2 1.7 1.2 2.2 0 0.4-0.6 0.4-1.3 0q-1.2-0.8-0.5 0.5c0.5 0.6 1.7 1 2.8 0.7 1.2-0.3 2 0 2.1 0.8 0.1 0.6 0.1 1.5 0 2 0 0.4 0.6 0.7 1.4 0.7 0.8 0 1.5 0.5 1.5 1 0 0.5 0.5 0.8 1 0.5 0.5-0.3 2.1 0.4 3.5 1.5 1.4 1.1 3.4 2 4.5 2 1.1 0 2.2 0.5 2.5 1 0.3 0.5 1.3 1 2.3 0.9 0.9 0 2.8 0.2 4.2 0.5 1.4 0.3 8.8 0.9 16.5 1.3 8.2 0.4 14.3 0.3 14.7-0.3 0.3-0.5-1.3-1-3.8-1.1-2.4-0.2-5.3-1.1-6.4-2-1.1-1-2-2.4-2-3 0-0.7 0.8-1.3 1.8-1.4 1.4 0 1.4-0.2-0.3-0.9-1.8-0.8-1.8-0.9 0.5-0.9 2.3 0 2.4-0.2 1-1.7-1.4-1.6-1.3-1.7 0.7-1.3 1.5 0.3 2.5-0.3 3.3-2.1 1.2-2.4 1.3-2.4 2.1-0.5l0.8 2c0.1-3.3 1.9-5.1 4.8-7 2.7-1.6 5.5-3.2 6.4-3.5 0.9-0.3 2.7-1.3 4-2.2 1.3-1 5.3-3.8 8.9-6.3 3.6-2.5 7.5-5 8.8-5.5 1.2-0.6 2.2-1.9 2.2-3 0-1.1 0.3-1.8 0.7-1.5 0.5 0.3 2.3-0.9 4-2.5 1.8-1.7 3.8-3 4.3-3 0.5 0 1.1-1 1.2-2.2 0.2-1.3 1-2.3 1.8-2.3 0.8-0.1 1.4-0.6 1.2-1.3-0.1-0.7 0.9-1.2 2.3-1.2 1.5 0 2.4-0.5 2.1-1.2-0.2-0.7 0.1-2.1 0.5-3 0.6-1.3 1.6-1.6 3.1-1.2 1.7 0.4 2.8 0 4-1.7 1-1.3 1.5-2.7 1.3-3.1-0.3-0.5 0.3-0.5 1.2-0.1 1 0.3 1.5 0.2 1.1-0.3-0.4-0.5 0.2-2 1.3-3.4 1.1-1.4 2-2.8 1.9-3.2 0-0.5-0.9-2-2.1-3.5l-2.1-2.8c13.7-0.9 0.6-1.1-20.3-1.2-20.9 0-39.1 0.2-40.5 0.4zm-151.3 17.1c-1 1.7-1.8 4.5-1.8 6.2 0.1 1.8-0.5 3.2-1.4 3.5-1.1 0.4-1.5 2-1.5 6.3 0 3.1-0.4 6.2-0.8 6.8-0.4 0.6-1.5 1.4-2.4 1.7-1 0.4-1.8 1.4-1.8 2.2 0 0.8-0.4 1.3-1 1-0.5-0.3-1.4 0.4-2 1.5-0.5 1.1-1 3.4-1 5 0 1.6-0.4 3-1 3-0.5 0-1 0.7-1 1.5 0 0.8-1 2-2.2 2.7-1.3 0.7-2.7 1.3-3.3 1.3-0.5 0-1.3-0.4-1.6-1-0.4-0.6-1.8 0.1-3.5 1.8-1.6 1.5-3.5 2.7-4.1 2.7-0.7 0-2.7 0.8-4.3 1.8-1.7 0.9-3.3 2.5-3.5 3.5-0.3 0.9-2.1 2.2-4 2.7-1.9 0.5-3.5 1.6-3.5 2.3-0.1 0.9 0.3 0.9 1.7-0.2 1-0.7 0.2 0.1-1.7 1.8-2.5 2.2-3.7 2.7-4.2 1.8-0.4-0.8-1.3 0.2-2.5 2.6-1 2-2.2 3.7-2.8 3.8-0.5 0-2.2 1-3.6 2.2-1.5 1.2-3 3.6-3.4 5.2-0.4 1.6-0.7 4.8-0.7 7 0 2.2 1 5.7 2.1 7.8 1.2 2 1.9 4.2 1.6 4.7-0.3 0.5 0.2 1.2 1 1.5 0.8 0.3 1.5 1.1 1.5 1.8-0.1 0.6 0.8 2.4 2 4 1.1 1.5 1.7 3.2 1.3 3.9q-0.8 1.3 0.5 0.5 1.2-0.7 3 3.1c0.9 2 2.5 4.3 3.5 5 0.9 0.6 1.5 1.7 1.2 2.2-0.3 0.5 0.5 1.5 1.8 2.2 1.2 0.7 2.6 1.1 3.2 0.9 0.6-0.1 0.5 0.4-0.2 1.1-1 1-0.5 2.1 2.5 5.1 2 2.1 4.6 4.3 5.7 4.9l2 1.1c-3.1-3.7-4.3-5-4.6-5.3-0.4-0.3-0.8-1.6-0.9-3-0.1-1.4-0.1-3.2 0-4 0.1-1.2 0.3-1.1 0.8 0.2 0.5 1.4 1.4 0.5 3.7-3.7 1.6-3.1 3.6-5.5 4.3-5.5 0.6 0 1.4-1 1.7-2.2l0.5-2.3c2.3 4 2.7 4.1 3.8 2.9 0.6-0.8 0.9-1.5 0.5-1.5-0.5-0.1-1.2-0.1-1.8 0-0.6 0.1-0.1-0.6 1-1.4 1.6-1.2 2.2-1.2 2.7-0.3 0.5 1 1.2 0.7 2.5-0.9 1.3-1.6 2.3-1.9 3.6-1.2 1.1 0.6 1.7 0.5 1.7-0.1 0-0.5 0.8-1 1.8-1 1.4 0 1.5-0.2 0.2-0.9-1.3-0.8-1.2-1 0.5-1.5 1.1-0.4 2.8-0.4 3.8-0.1 1 0.3 1.7 0 1.7-0.7q0-1.3 1 0.2 1 1.5 1 0.3c0-0.7 0.3-1.2 0.8-1.2 0.4 0.1 1.5 0.1 2.5 0q1.7-0.1 1.7-2.6c0-1.4 0.4-2.5 1-2.5 0.6 0 2-0.9 3.3-2 1.2-1.1 2.5-1.7 3-1.5 0.4 0.3 0.7-0.2 0.7-1 0-0.8 0.7-3 1.5-4.7 0.9-1.8 2.5-4.4 3.6-5.8 1.1-1.4 1.8-1.9 1.5-1.2-0.3 0.6-0.2 1.2 0.4 1.2 0.6 0 1.1-0.6 1.1-1.2 0.1-0.7 0.1-1.8 0-2.3-0.1-0.5 0.9-2 2.1-3.3 1.3-1.2 2.5-2.2 2.8-2.2 0.3 0 2.4 1.5 4.8 3.5 2.3 1.9 4.2 3.2 4.2 2.8-0.1-0.5-2-2.5-4.3-4.6-2.3-2.1-3.8-3.8-3.2-3.7 0.6 0 0-0.9-1.2-2-1.3-1.1-2.2-2.2-2-2.4 0.1-0.2-0.9-1.8-2.3-3.6-1.4-1.8-2.9-4.1-3.5-5.1-0.6-1-2-3.4-3.2-5.3-1.3-2-1.9-3.4-1.3-3.1 0.6 0.3 0.8-0.2 0.5-1-0.3-0.8-0.9-1.5-1.5-1.5-0.6 0-0.8-0.5-0.5-1 0.3-0.5 0.1-1.2-0.5-1.5-0.6-0.3-0.8-1-0.5-1.5 0.3-0.5 0.1-1-0.5-1-0.6 0-0.8-0.7-0.5-1.5 0.3-0.8 0.1-1.5-0.5-1.5-0.6 0-0.8-0.7-0.5-1.5q0.5-1.5-0.7-0.7c-0.9 0.5-1 0.2-0.5-1 0.4-1 0.3-1.8-0.3-1.8-0.6 0-0.8-0.9-0.5-2 0.3-1.1 0.1-2.2-0.5-2.5-0.6-0.3-0.9-2.3-0.7-4.5 0.1-2.2-0.1-4-0.5-4-0.5 0-0.8-1.5-0.9-3.2 0-1.8-0.1-5.6-0.2-8.5-0.1-2.9-0.7-5.7-1.2-6.4-0.8-0.8-1.5-0.3-2.8 1.9z"/>
		<path id="Path 7" fill-rule="evenodd" class="s6" d="m303.5 89.2c10.5 0 21.3 0.3 24 0.7 4.9 0.7 4.9 0.7 1.8 1.4-1.8 0.4-3.8 0.5-4.3 0.2-0.5-0.3-1.7 0.1-2.5 0.7-0.9 0.7-1.6 1-1.5 0.5 0-0.4-1.2 0.4-2.8 1.8-1.5 1.4-3 2.5-3.5 2.5-0.4 0-0.9-0.4-1.2-1-0.3-0.6-1-0.8-1.5-0.5-0.5 0.3-1 1.6-1 3 0 1.6-1.1 3.4-3 5-1.6 1.4-3.7 2.5-4.5 2.5-0.8 0-1.5 0.4-1.5 1 0 0.6-1.2 1.2-2.8 1.5-1.5 0.2-3.8 1.5-5.2 2.8-1.4 1.4-5.8 4.5-9.8 7.1-3.9 2.5-8 5.4-8.9 6.4-1 1-3.4 2.9-5.3 4.2-1.9 1.3-3.7 2.7-4 3-0.3 0.3-2.7 2.2-5.5 4.1-2.7 2-9.7 6.3-15.4 9.5-5.7 3.3-13.1 8.3-16.5 11.2-3.3 2.9-7.5 6-9.1 6.7-1.6 0.8-5.1 3.5-7.8 6-2.6 2.5-5 4.5-5.4 4.5-0.5 0-2.2 1.2-3.9 2.7-1.8 1.6-6 4.4-9.4 6.3-3.4 1.9-6.7 4-7.3 4.5-0.7 0.6-4.2 3.4-7.9 6.3-3.8 2.8-6.8 5.5-6.8 5.9 0 0.5-2.6 2.2-5.7 3.8-3.2 1.6-7.5 4.2-9.5 5.7-2.1 1.6-4.2 2.8-4.8 2.8-0.6 0-2 0.7-3.2 1.5-1.3 0.8-3.7 1.5-5.3 1.5-1.6 0-4.9 0.2-7.3 0.3-4.2 0.2-4.3 0.3-6.3 5.7-1.2 3-3.4 10.4-5 16.5-1.5 6.1-2.8 10.2-2.9 9.2 0-0.9 0.7-4.7 1.5-8.5 0.8-3.7 3.2-12.1 5.3-18.7 2.2-6.6 6.9-17.9 10.5-25 3.7-7.1 9.2-16.8 12.3-21.5 3.1-4.7 8.2-11.6 11.3-15.5 3.1-3.8 8.3-9.8 11.6-13.2 3.3-3.5 6.3-6.4 6.8-6.3 0.4 0 1.3 1.2 2 2.7 0.7 1.6 2 3.8 2.8 5.1 0.8 1.2 2.2 2.2 3.1 2.2 1 0 3-0.6 4.5-1.4 1.6-0.7 3.7-3.2 4.9-5.7 1.2-2.4 4.5-6.7 7.3-9.4 2.9-2.8 6.2-6.5 7.4-8.4 1.2-1.9 4.8-4.9 7.9-6.7 3.2-1.9 8.6-6.3 12-9.8 5.2-5.3 7.2-6.7 11-7.5 2.7-0.6 5.6-1.5 6.5-2 1-0.6 4-1.7 6.8-2.5 2.7-0.8 8.8-2.2 13.5-3 4.7-0.8 9.9-1.7 11.5-1.9 1.6-0.2 11.5-0.4 22-0.5zm-1 82l-7 0.9c-3.9 0.4-9.3 1.3-12 1.9-2.8 0.7-7.9 2.1-11.5 3.2-3.6 1.1-9.4 3.6-13 5.6-3.6 1.9-7.6 4.2-9 5.2-1.4 0.9-3.2 2-4 2.5-0.9 0.5-0.7-0.1 0.5-1.4 1.1-1.2 6.5-4.5 12-7.2 5.5-2.8 14.5-6.3 20-7.8 6.5-1.9 12.4-2.8 24-2.9zm-59 19.8c0.5 0.1-0.6 1.3-2.5 2.7-1.9 1.5-7.3 6.5-12 11.2-4.7 4.7-7.2 6.8-5.5 4.6 1.6-2.2 3.9-4.9 5-6 1.1-1.1 4.7-4.4 8-7.3 3.2-2.8 6.4-5.2 7-5.2zm-23 23c0.1 0-1.4 2.9-3.4 6.4-2 3.6-3.7 6.3-3.9 6-0.1-0.2 0.8-2.3 2-4.7 1.2-2.3 2.9-5 3.7-6 0.8-0.9 1.5-1.7 1.6-1.7zm-101.8 59c0.2 4.1 0.2 11.1 0 15.5-0.1 4.4-0.3 1-0.3-7.5 0-8.5 0.2-12.1 0.3-8z"/>
		<path id="Path 11" class="s7" d="m343.5 94c1.1 1.1 5.1 3.2 9 4.6 3.9 1.4 9 3.3 11.5 4.2 2.5 0.8 8.3 3.9 13 6.8 4.7 2.8 10 5.9 11.8 6.8 1.9 0.9 5.6 1.6 8.9 1.6l5.8-0.1c-6.2-3.9-13-7.4-19-10.4-6-2.9-15.4-7-20.8-8.9-5.3-2-12.5-4.3-15.9-5.1l-6.3-1.5zm-120.6 13.8c-7.4 3.7-16.3 8.7-19.9 11.2-3.6 2.4-10.2 7.4-14.8 11.2l-8.2 6.8c2.9 5 4.3 7.5 5.1 8.7 0.8 1.3 2.2 2.3 3.1 2.3 1 0 3-0.6 4.5-1.4 1.6-0.7 3.7-3.2 4.9-5.7 1.2-2.4 4.5-6.7 7.3-9.4 2.9-2.8 6.1-6.5 7.2-8.3 1.1-1.7 4.6-4.7 7.7-6.5 3.1-1.8 8.3-6 11.5-9.3 3.2-3.2 5.6-6 5.4-6.2-0.2-0.1-6.4 2.9-13.8 6.6zm214.3 38.2c1.5 1.9 3 4.8 3.4 6.5 0.3 1.6 1.6 4 2.8 5.2 1.7 1.8 2.4 2 3.4 1 0.7-0.7 1.3-1.9 1.2-2.7 0-0.8-3.1-4.2-6.8-7.5-5-4.5-6-5.2-4-2.5z"/>
	</g>
</svg>